<svg xmlns="http://www.w3.org/2000/svg" width="2778.667" height="2778.667" preserveAspectRatio="xMidYMid meet" version="1.0" viewBox="0 0 2084 2084"><metadata>Created by potrace 1.14, written by Peter Selinger 2001-2017</metadata><g fill="#000" stroke="none"><path d="M0 10420 l0 -10420 10420 0 10420 0 0 10420 0 10420 -10420 0 -10420 0 0 -10420z m6727 -619 c10 -21 349 -549 753 -1174 l735 -1134 3 1173 2 1174 1025 0 1025 0 0 -1754 0 -1754 -644 -1278 -644 -1279 -381 -3 c-278 -2 -381 1 -381 9 0 6 -336 531 -747 1167 l-748 1155 -3 -1167 -2 -1166 -1030 0 -1030 0 0 3028 c0 1666 3 3032 7 3035 3 4 464 7 1024 7 l1018 0 18 -39z m8282 -3391 l1318 -2655 -1514 -3 c-832 -1 -2194 -1 -3026 0 l-1512 3 1446 2875 c796 1581 1482 2942 1524 3025 l78 149 184 -369 c101 -204 777 -1565 1502 -3025z" transform="translate(0.000000,2084.000000) scale(0.100000,-0.100000)"/></g></svg>