<svg xmlns="http://www.w3.org/2000/svg" xmlns:xlink="http://www.w3.org/1999/xlink" id="Layer_1" width="48" height="48" x="0" y="0" enable-background="new 0 0 2084 2084" version="1.1" viewBox="0 0 2084 2084" xml:space="preserve"><path fill="#192E39" stroke="none" d="M1382.000000,2086.000000 C921.388306,2086.000000 461.776642,2086.000000 2.082483,2086.000000 C2.082483,1391.471436 2.082483,696.942871 2.082483,2.207134 C696.445435,2.207134 1390.890869,2.207134 2085.668213,2.207134 C2085.668213,696.666565 2085.668213,1391.333252 2085.668213,2086.000000 C1851.608765,2086.000000 1617.304321,2086.000000 1382.000000,2086.000000 M822.605835,1333.470947 C772.999146,1256.874023 723.392456,1180.277100 673.729248,1103.593018 C606.130066,1103.593018 538.616394,1103.593018 471.210419,1103.593018 C469.070068,1115.454834 469.598541,1702.291382 471.624969,1709.157715 C539.141052,1709.157715 606.630005,1709.157715 675.007629,1709.157715 C675.007629,1703.871582 675.007568,1699.252441 675.007690,1694.633179 C675.008789,1626.311890 674.983704,1557.990601 675.084656,1489.669434 C675.090027,1486.060425 673.689514,1481.931274 677.265747,1478.130737 C727.396057,1555.603149 777.148193,1632.491211 827.005737,1709.542236 C851.485107,1709.542236 876.105957,1709.542236 900.984802,1709.542236 C902.473450,1706.833618 903.983459,1704.278076 905.316101,1701.633301 C945.923157,1621.041382 986.561035,1540.464966 1026.969604,1459.773682 C1029.098022,1455.523438 1030.192383,1450.289673 1030.199951,1445.511230 C1030.376953,1334.531128 1030.340698,1223.550537 1030.314453,1112.570068 C1030.313721,1109.663696 1029.984741,1106.757324 1029.791992,1103.572998 C961.644958,1103.572998 894.171509,1103.572998 825.662842,1103.572998 C825.662842,1107.707153 825.662842,1111.288818 825.662842,1114.870483 C825.662842,1168.860962 825.685059,1222.851440 825.650757,1276.841919 C825.638672,1295.834229 825.488037,1314.826538 824.535522,1333.817139 C824.535522,1333.817139 823.752319,1334.184814 822.605835,1333.470947 M1030.163818,724.680176 C1030.625366,727.302673 1031.050049,729.932373 1031.554077,732.546692 C1052.727417,842.363464 1115.049561,919.263611 1217.611694,963.123352 C1236.732300,971.300171 1257.303955,976.452454 1277.601807,981.364563 C1289.009644,984.125183 1301.219727,983.662476 1313.082764,984.430725 C1336.784668,985.965881 1360.304199,984.451965 1383.713867,980.356262 C1512.475952,957.828552 1618.219849,851.010437 1632.165527,711.155090 C1635.232178,680.402039 1633.264648,649.998230 1627.004028,620.050598 C1594.537354,464.749847 1446.615112,356.536224 1281.950562,382.882996 C1196.814331,396.505066 1129.221924,440.113586 1080.262329,511.074341 C1036.212524,574.918884 1020.501282,646.071594 1030.163818,724.680176 M950.256104,858.680054 C928.629761,813.347717 915.797119,765.485779 912.491516,715.532104 C910.117798,679.662231 910.968323,643.696289 917.606140,607.995239 C932.167725,529.676270 965.746521,460.914734 1018.987000,401.701111 C1022.323914,397.989838 1025.899048,394.346436 1028.474365,390.128662 C1033.181396,382.419495 1029.749634,376.587982 1020.799194,376.253357 C1019.134827,376.191132 1017.466553,376.231079 1015.800049,376.231049 C957.138855,376.230347 898.477722,376.222534 839.816528,376.236481 C825.897705,376.239777 825.862244,376.273560 825.858765,389.920776 C825.843933,447.248749 825.853394,504.576691 825.848999,561.904663 C825.848755,564.903992 825.763123,567.903625 825.787903,570.902588 C825.824707,575.356873 823.808044,577.773438 819.208740,577.775330 C816.876221,577.776245 814.543640,577.858215 812.211121,577.858521 C770.548340,577.863892 728.885620,577.863281 687.222839,577.859741 C685.223328,577.859558 683.212158,577.951904 681.226440,577.776062 C675.435486,577.263123 674.421326,576.105957 674.731628,570.208008 C674.923828,566.554321 675.658875,562.911194 675.634338,559.266785 C675.248718,501.963470 674.828613,444.660248 674.284729,387.358246 C674.182373,376.567657 673.734375,376.392456 662.729187,376.234467 C662.062683,376.224884 661.395996,376.230835 660.729370,376.230835 C601.734863,376.230713 542.740417,376.222107 483.745941,376.237091 C470.028259,376.240570 469.994110,376.277618 469.993561,390.102264 C469.985992,583.417480 469.985809,776.732727 469.993958,970.047974 C469.994537,983.808533 470.031189,983.842590 483.798584,983.845825 C543.126343,983.859680 602.454163,983.852112 661.781921,983.850342 C663.781677,983.850281 665.787598,983.927368 667.779968,983.800598 C674.348694,983.382812 675.348022,982.607483 675.590515,976.145020 C675.865295,968.822266 675.744629,961.481628 675.681519,954.149780 C675.248535,903.845886 674.782104,853.542175 674.338135,803.238403 C674.299927,798.906006 674.180725,794.564697 674.391663,790.241821 C674.731812,783.271179 675.589539,782.540405 682.825439,782.171814 C684.487976,782.087097 686.157776,782.138550 687.824280,782.138550 C729.153748,782.137268 770.483154,782.128662 811.812622,782.142334 C825.827515,782.146973 825.846558,782.173096 825.848633,796.696960 C825.857056,854.691528 825.841248,912.686096 825.861389,970.680664 C825.865967,983.795654 825.915771,983.840088 839.318115,983.844055 C898.645874,983.861633 957.973694,983.852173 1017.301453,983.848328 C1019.300964,983.848145 1021.313416,983.940918 1023.297546,983.753601 C1029.844116,983.135620 1031.883667,979.189575 1028.324097,973.512939 C1026.391357,970.430481 1023.945679,967.617310 1021.445251,964.951050 C992.234314,933.801086 969.050537,898.611389 950.256104,858.680054 M1605.104004,1647.953003 C1582.731201,1602.896973 1560.358398,1557.840942 1537.985596,1512.784790 C1472.347412,1380.596924 1406.716797,1248.405273 1341.019653,1116.246704 C1339.620605,1113.432129 1337.456543,1110.997925 1334.786621,1107.139404 C1233.219849,1308.894775 1132.344360,1509.277222 1030.801758,1710.984741 C1233.367798,1710.984741 1434.005981,1710.984741 1636.242432,1710.984741 C1625.724854,1689.683960 1615.751221,1669.484863 1605.104004,1647.953003 z" opacity="1"/><path fill="#EF476F" stroke="none" d="M1030.075684,723.797363 C1020.501282,646.071594 1036.212524,574.918884 1080.262329,511.074341 C1129.221924,440.113586 1196.814331,396.505066 1281.950562,382.882996 C1446.615112,356.536224 1594.537354,464.749847 1627.004028,620.050598 C1633.264648,649.998230 1635.232178,680.402039 1632.165527,711.155090 C1618.219849,851.010437 1512.475952,957.828552 1383.713867,980.356262 C1360.304199,984.451965 1336.784668,985.965881 1313.082764,984.430725 C1301.219727,983.662476 1289.009644,984.125183 1277.601807,981.364563 C1257.303955,976.452454 1236.732300,971.300171 1217.611694,963.123352 C1115.049561,919.263611 1052.727417,842.363464 1031.554077,732.546692 C1031.050049,729.932373 1030.625366,727.302673 1030.075684,723.797363 z" opacity="1"/><path fill="#FFD166" stroke="none" d="M825.400757,1333.818848 C825.488037,1314.826538 825.638672,1295.834229 825.650757,1276.841919 C825.685059,1222.851440 825.662842,1168.860962 825.662842,1114.870483 C825.662842,1111.288818 825.662842,1107.707153 825.662842,1103.572998 C894.171509,1103.572998 961.644958,1103.572998 1029.791992,1103.572998 C1029.984741,1106.757324 1030.313721,1109.663696 1030.314453,1112.570068 C1030.340698,1223.550537 1030.376953,1334.531128 1030.199951,1445.511230 C1030.192383,1450.289673 1029.098022,1455.523438 1026.969604,1459.773682 C986.561035,1540.464966 945.923157,1621.041382 905.316101,1701.633301 C903.983459,1704.278076 902.473450,1706.833618 900.984802,1709.542236 C876.105957,1709.542236 851.485107,1709.542236 827.005737,1709.542236 C777.148193,1632.491211 727.396057,1555.603149 677.265747,1478.130737 C673.689514,1481.931274 675.090027,1486.060425 675.084656,1489.669434 C674.983704,1557.990601 675.008789,1626.311890 675.007690,1694.633179 C675.007568,1699.252441 675.007629,1703.871582 675.007629,1709.157715 C606.630005,1709.157715 539.141052,1709.157715 471.624969,1709.157715 C469.598541,1702.291382 469.070068,1115.454834 471.210419,1103.593018 C538.616394,1103.593018 606.130066,1103.593018 673.729248,1103.593018 C723.392456,1180.277100 772.999146,1256.874023 823.339294,1334.338013 C824.515442,1334.743042 824.958069,1334.280884 825.400757,1333.818848 z" opacity="1"/><path fill="#26547C" stroke="none" d="M950.582153,859.353394 C969.050537,898.611389 992.234314,933.801086 1021.445251,964.951050 C1023.945679,967.617310 1026.391357,970.430481 1028.324097,973.512939 C1031.883667,979.189575 1029.844116,983.135620 1023.297546,983.753601 C1021.313416,983.940918 1019.300964,983.848145 1017.301453,983.848328 C957.973694,983.852173 898.645874,983.861633 839.318115,983.844055 C825.915771,983.840088 825.865967,983.795654 825.861389,970.680664 C825.841248,912.686096 825.857056,854.691528 825.848633,796.696960 C825.846558,782.173096 825.827515,782.146973 811.812622,782.142334 C770.483154,782.128662 729.153748,782.137268 687.824280,782.138550 C686.157776,782.138550 684.487976,782.087097 682.825439,782.171814 C675.589539,782.540405 674.731812,783.271179 674.391663,790.241821 C674.180725,794.564697 674.299927,798.906006 674.338135,803.238403 C674.782104,853.542175 675.248535,903.845886 675.681519,954.149780 C675.744629,961.481628 675.865295,968.822266 675.590515,976.145020 C675.348022,982.607483 674.348694,983.382812 667.779968,983.800598 C665.787598,983.927368 663.781677,983.850281 661.781921,983.850342 C602.454163,983.852112 543.126343,983.859680 483.798584,983.845825 C470.031189,983.842590 469.994537,983.808533 469.993958,970.047974 C469.985809,776.732727 469.985992,583.417480 469.993561,390.102264 C469.994110,376.277618 470.028259,376.240570 483.745941,376.237091 C542.740417,376.222107 601.734863,376.230713 660.729370,376.230835 C661.395996,376.230835 662.062683,376.224884 662.729187,376.234467 C673.734375,376.392456 674.182373,376.567657 674.284729,387.358246 C674.828613,444.660248 675.248718,501.963470 675.634338,559.266785 C675.658875,562.911194 674.923828,566.554321 674.731628,570.208008 C674.421326,576.105957 675.435486,577.263123 681.226440,577.776062 C683.212158,577.951904 685.223328,577.859558 687.222839,577.859741 C728.885620,577.863281 770.548340,577.863892 812.211121,577.858521 C814.543640,577.858215 816.876221,577.776245 819.208740,577.775330 C823.808044,577.773438 825.824707,575.356873 825.787903,570.902588 C825.763123,567.903625 825.848755,564.903992 825.848999,561.904663 C825.853394,504.576691 825.843933,447.248749 825.858765,389.920776 C825.862244,376.273560 825.897705,376.239777 839.816528,376.236481 C898.477722,376.222534 957.138855,376.230347 1015.800049,376.231049 C1017.466553,376.231079 1019.134827,376.191132 1020.799194,376.253357 C1029.749634,376.587982 1033.181396,382.419495 1028.474365,390.128662 C1025.899048,394.346436 1022.323914,397.989838 1018.987000,401.701111 C965.746521,460.914734 932.167725,529.676270 917.606140,607.995239 C910.968323,643.696289 910.117798,679.662231 912.491516,715.532104 C915.797119,765.485779 928.629761,813.347717 950.582153,859.353394 z" opacity="1"/><path fill="#06D6A0" stroke="none" d="M1605.440796,1648.619385 C1615.751221,1669.484863 1625.724854,1689.683960 1636.242432,1710.984741 C1434.005981,1710.984741 1233.367798,1710.984741 1030.801758,1710.984741 C1132.344360,1509.277222 1233.219849,1308.894775 1334.786621,1107.139404 C1337.456543,1110.997925 1339.620605,1113.432129 1341.019653,1116.246704 C1406.716797,1248.405273 1472.347412,1380.596924 1537.985596,1512.784790 C1560.358398,1557.840942 1582.731201,1602.896973 1605.440796,1648.619385 z" opacity="1"/><path fill="#535744" stroke="none" d="M824.968140,1333.817993 C824.958069,1334.280884 824.515442,1334.743042 823.912537,1334.694946 C823.752319,1334.184814 824.535522,1333.817139 824.968140,1333.817993 z" opacity="1"/></svg>